<svg width="808.51mm" height="724.02mm" viewBox="0 0 808.51 724.02" xmlns="http://www.w3.org/2000/svg"><g stroke="none" stroke-miterlimit="5.2" stroke-width="0"><path d="M786.05 112.952l16.571 10.424 5.88 17.239-14.7-15.502-18.174-4.944z" fill="#916f6f"/><path d="M773.89 133.398l31.538 7.617-11.359-12.562-16.972-4.543-10.691 3.608z" fill="#916f6f"/><path d="M477.95 523.58l-9.45 66.902 19.656 55.185-18.521 6.048-21.545-7.938 20.789 22.68 19.655-3.403 6.803 17.01-21.923 17.386-4.535 11.34 31.371-12.852 4.536 20.411c18.298-21.635 91.59 13.501 86.557 6.804-3.908-5.2-13.985-13.607-13.985-13.607 2.536-8.74 22.843 6.608 36.286.378 10.183-4.72-51.317-19.005-78.997-9.45l-38.176-108.48 18.521-78.24 31.372 36.663 15.497 31.75c4.409-21.85-6.329-19.254 6.804-26.08l15.119 7.182c16.758 8.856 44.066 52.41 36.255 25.324l-24.916-30.616c51.327 48.09 59.122 67.058 19.18-6.006 0 0-17.151-16.33-29.763-21.209-10.57-4.088-33.64-4.913-33.64-4.913l-13.23-34.396z" fill="#917c6f"/></g><path d="M.28 83.82c-4.85-31.343 53.893-39.41 85.526-41.694 54.854-3.96 111.7 19.289 157.15 50.247 33.075 22.526 55.396 58.648 75.905 93.01 18.179 30.459 40.625 98.355 40.625 98.355l140.58-24.054 125.08-38.487 93.544 2.673 9.087-11.76s15.001 35.007 14.433 53.454c-.962 31.2-16.05 60.776-29.934 88.733-20.597 41.474-45.22 82.26-78.043 114.93-18.564 18.476-65.214 43.832-65.214 43.832s-55.29 28.068-83.388 41.16c-24.516 11.423-47.255 32.795-74.3 32.607-17.622-.123-48.11-21.916-48.11-21.916s-32.244-27.88-33.14-47.04c-1.058-22.561 33.675-58.798 33.675-58.798l-27.262-33.141c-50.727 19.923-55.668 35.186-74.3-12.83-21.052-2.28-36.408 30.287-50.248 28.866-7.099-1.292-11.025-10.996-11.76-18.174-1.304-12.74 13.898-35.814 13.898-35.814-3.083 11.137-36.546 54.46-45.477 45.396-10.382-13.71 24.882-63.397 13.472-70.404-5.714-3.51-40.175 6.692-49.245-6.53-6.771-9.872 20.333-19.697 13.455-33.839-11.326-23.287-27.884 2.562-52.21-20.15-6.683-6.24 33.286-16.606 33.286-16.606s-48.69-8.761-53.865-22.95c-8.75-23.993 28.156-1.83 15.82-43.85-79.549-12.137 46.462-27.835-18.15-50.842-19.577-4.888-56.514-12.88-1.946-45.357C123.792 90.37 12.33 128.621.268 83.827z" fill="#483e37"/><g stroke="none" stroke-miterlimit="5.2" stroke-width="0"><path d="M556.74 184.847s-68.322 67.091-90.337 75.37c-40.177 15.108-88.617 6.571-125.62 28.331-23.278 13.689-43.523 35.509-53.988 60.403-9.343 22.224-4.81 72.163-4.81 72.163l22.45-29.4-1.069 68.956 22.451-55.592-1.604 65.748 22.451-63.076-13.363 75.37 29.4-74.835-1.069 63.61 29.934-64.145-15.502 75.905 48.643-83.388-11.76 44.901s30.316-60.81 53.454-84.992c17.53-18.32 45.043-24.948 62.541-43.298 21.597-22.649 49.712-79.646 49.712-79.646z" fill="#d4aa00"/><path d="M734.6 167.152c-9.767 246.45-254.99 100.61-190.5 15.119l61.61-50.649s30.355-23.781 47.247-32.884c11.946-6.437 37.798-15.119 37.798-15.119l43.089-11.717 24.946 40.821z" fill="#f95"/></g><path d="M721.48 162.994s16.747 35.659 32.884 35.53c17.933-.144 34.521-22.185 35.908-40.065.894-11.533-18.899-29.104-18.899-29.104l21.167-15.875s19.445-29.321 9.45-37.42c-5.999-4.86-20.79 10.205-20.79 10.205s18.142-25.229 9.828-33.262c-5.158-4.983-20.411 6.804-20.411 6.804s17.92-32.212 6.425-37.798c-9.787-4.757-21.923 24.19-21.923 24.19S762.6 2.452 747.182.086c-14.704-2.257-20.411 39.688-20.411 39.688s1.894-35.756-10.583-35.908c-11.116-.136-10.205 31.75-10.205 31.75S694.002 4.124 681.793 6.89c-12.696 2.876-14.51 25.65-9.828 37.798 6.775 17.575 47.247 30.994 47.247 30.994l21.545 10.205c-13.477.403-36.599-.22-38.554 16.63 10.184 26.623 24.054 32.294 19.277 60.477z" fill="red"/><g stroke="none" stroke-miterlimit="5.2" stroke-width="0"><path d="M743.02 105.402c-1.235 2.872-4.795 4.598-7.884 5.078-3.465.54-7.67-.267-10.156-2.74-2.556-2.54-4.233-7.085-2.874-10.423 1.168-2.866 4.948-4.297 8.019-4.678 3.82-.473 8.502.36 11.092 3.208 2.18 2.398 3.084 6.577 1.804 9.555z" fill="#f95"/><path d="M739.17 103.985c-.78 1.813-3.028 2.903-4.978 3.206-2.188.34-4.843-.168-6.412-1.73-1.614-1.604-2.673-4.473-1.814-6.58.737-1.81 3.123-2.713 5.062-2.954 2.412-.299 5.368.227 7.003 2.025 1.377 1.514 1.947 4.153 1.139 6.033z"/></g></svg>